<svg width="257" height="257" viewBox="0 0 257 257" fill="none" xmlns="http://www.w3.org/2000/svg">
<path d="M106.737 109.364H136.421V99.5455C136.421 95.4545 134.978 91.9773 132.092 89.1136C129.206 86.25 125.702 84.8182 121.579 84.8182C117.456 84.8182 113.952 86.25 111.066 89.1136C108.18 91.9773 106.737 95.4545 106.737 99.5455V109.364ZM151.263 183C144.419 183 138.586 180.608 133.764 175.823C128.939 171.035 126.526 165.245 126.526 158.455C126.526 151.664 128.939 145.874 133.764 141.086C138.586 136.301 144.419 133.909 151.263 133.909C158.107 133.909 163.942 136.301 168.767 141.086C173.589 145.874 176 151.664 176 158.455C176 165.245 173.589 171.035 168.767 175.823C163.942 180.608 158.107 183 151.263 183ZM122.816 178.091H91.8947C89.1737 178.091 86.8451 177.13 84.9091 175.209C82.9697 173.285 82 170.973 82 168.273V119.182C82 116.482 82.9697 114.17 84.9091 112.245C86.8451 110.324 89.1737 109.364 91.8947 109.364H96.8421V99.5455C96.8421 92.7545 99.2548 86.9651 104.08 82.1771C108.902 77.3924 114.735 75 121.579 75C128.423 75 134.257 77.3924 139.083 82.1771C143.905 86.9651 146.316 92.7545 146.316 99.5455V109.364H151.263C153.984 109.364 156.314 110.324 158.254 112.245C160.19 114.17 161.158 116.482 161.158 119.182V125.564C159.509 124.991 157.86 124.601 156.211 124.395C154.561 124.192 152.912 124.091 151.263 124.091C141.616 124.091 133.433 127.424 126.714 134.091C119.992 140.761 116.632 148.882 116.632 158.455C116.632 161.973 117.189 165.388 118.304 168.7C119.415 172.015 120.919 175.145 122.816 178.091ZM151.263 158.455C153.325 158.455 155.076 157.738 156.517 156.304C157.962 154.874 158.684 153.136 158.684 151.091C158.684 149.045 157.962 147.308 156.517 145.877C155.076 144.444 153.325 143.727 151.263 143.727C149.202 143.727 147.45 144.444 146.009 145.877C144.564 147.308 143.842 149.045 143.842 151.091C143.842 153.136 144.564 154.874 146.009 156.304C147.45 157.738 149.202 158.455 151.263 158.455ZM151.263 173.182C153.737 173.182 156.046 172.609 158.189 171.464C160.333 170.318 162.106 168.723 163.508 166.677C161.611 165.532 159.632 164.694 157.571 164.164C155.51 163.63 153.407 163.364 151.263 163.364C149.119 163.364 147.017 163.63 144.955 164.164C142.894 164.694 140.915 165.532 139.018 166.677C140.42 168.723 142.193 170.318 144.337 171.464C146.481 172.609 148.789 173.182 151.263 173.182Z" fill="#96A1AC"/>
<circle cx="128.5" cy="128.5" r="125.5" stroke="#C1CCDA" stroke-width="6" stroke-dasharray="4 4"/>
</svg>
